<svg width="622" height="520" viewBox="0 0 622 520" fill="none" xmlns="http://www.w3.org/2000/svg">
<path fill-rule="evenodd" clip-rule="evenodd" d="M320.885 100.096C321.195 90.023 320.685 48.518 359.49 33.6189C369.476 29.7842 384.13 31.5142 387.285 32.4242C417.901 41.2516 425.015 75.772 410.003 80.9619C400.686 84.1851 394.47 74.9493 390.162 75.293C386.578 75.5804 387.466 79.9419 387.556 80.3927C389.511 90.0202 403.748 98.0924 415.204 93.8577C435.505 86.3574 431.129 64.6822 430.698 60.5432C429.368 47.7234 418.137 34.8051 412.522 29.8096C400.347 18.9875 390.3 20.3286 390.052 15.6233C389.9 12.7523 394.901 9.90937 395.465 9.58817C414.427 -1.20015 428.449 0.304395 432.417 0.569243C452.198 1.90194 467.317 18.9142 471.535 27.0174C478.342 40.1048 467.41 34.405 466.844 34.0359C466.475 33.7964 466.176 33.4555 465.804 33.2216C451.15 24.0618 435.507 28.1416 434.806 32.4355C433.744 38.9412 442.929 37.0591 457.738 43.7085C462.449 45.8244 469.568 53.6121 471.639 57.9567C485.614 87.2562 464.009 101.696 451.573 113.73C432.29 132.387 435.031 143.15 434.256 144.81C432.901 147.715 429.709 145.599 429.382 145.382C428.055 144.503 427.218 139.972 427.128 139.476C423.874 121.844 437.764 110.74 440.303 108.134C452.686 95.4299 453.81 91.4515 454.314 80.4406C454.359 79.4376 455.038 64.6033 449.127 68.9986C446.113 71.2386 450.629 78.7276 443.523 91.6431C437.899 101.859 412.539 112.763 415.971 139.51C420.067 171.424 453.751 171.799 458 184.562C460.735 192.77 451.815 197.447 453.218 201.13C454.799 205.28 466.058 199.301 468.444 190.158C473.412 171.123 453.123 165.899 449.139 156.545C442.199 140.237 460.028 126.417 467.903 118.779C491.737 95.6525 486.429 89.7159 491.373 80.342C494.433 74.5435 507.599 77.6682 510.248 91.9925C511.059 96.3766 509.761 98.625 514.221 98.1939C517.069 97.9178 521.073 86.5434 516.244 77.9443C509.121 65.2626 499.589 64.0623 493.98 61.3716C482.295 55.7675 491.99 44.8468 485.403 27.0738C480.678 14.3244 480.109 14.5667 472.952 6.2832C470.862 3.86294 470.284 -0.791612 477.39 0.115633C494.985 2.35557 506.089 8.77953 508.34 10.0812C508.884 10.394 514.142 13.4369 510.352 17.6463C510.304 17.697 510.347 17.6604 505.337 20.8836C496.2 26.7582 495.287 36.9379 505.824 33.2132C516.114 29.5786 524.555 23.5969 545.301 31.8354C561.203 38.1523 572.687 54.4376 576.099 63.4903C588.105 95.3369 568.309 106.41 581.05 123.129C591.568 136.929 593.988 136.076 597.219 154.223C597.307 154.722 598.896 163.642 602.533 157.621C603.759 155.595 603.542 152.302 603.187 145.258C602.708 135.743 596.586 125.487 594.949 123.267C589.9 116.432 586.31 116.029 591.908 99.7153C594.951 90.8429 604.032 101.364 606.898 105.869C616.759 121.391 618.23 126.685 620.799 142.463C622.563 153.285 618.185 170.948 617.475 173.137C611.251 192.252 606.782 191.798 601.914 189.282C597.389 186.943 597.496 186.867 592.903 184.74C583.261 180.269 588.063 166.04 581.917 150.746C573.707 130.311 555.475 121.593 553.269 120.188C547.642 116.601 550.395 112.191 551.57 108.94C560.851 83.2525 552.548 56.486 533.732 46.6782C523.614 41.4066 525.516 49.8958 526.483 51.5891C528.105 54.4404 552.139 78.1359 536.516 105.739C531.343 114.874 521.484 114.426 508.236 119.447C495.022 124.453 484.313 138.769 486.755 156.359C488.404 168.229 489.7 169.531 490.179 171.01C499.493 199.811 485.186 204.395 484.808 209.957C484.744 210.912 485.121 219.221 496.755 209.565C507.213 200.882 507.256 186.825 507.261 184.664C507.315 166.305 495.016 158.142 502.959 142.514C511.011 126.671 551.161 118.968 568.343 156.145C570.394 160.58 573.659 165.502 571.791 184.808C570.901 193.987 572.442 195.137 581.551 196.624C606.605 200.715 613.95 228.386 614.437 235.487C616.015 258.585 613.491 260.272 610.586 272.275C610.394 273.067 608.002 282.962 604.32 280.294C602.108 278.693 603.131 278.124 602.429 271.774C601.888 266.84 593.109 248.991 587.51 250.29C581.67 251.648 590.595 268.004 591.534 283.314C592.528 299.574 584.163 319.407 574.907 330.201C558.45 349.396 534.315 354.023 514.131 357.246C513.688 357.317 510.203 357.872 508.586 356.356C507.428 355.268 507.03 348.715 506.991 348.041C506.396 338.202 506.143 338.14 506.622 337.343C508.805 333.697 509.901 335.543 519.74 335.123C529.971 334.686 539.432 329.24 539.776 329.02C548.118 323.709 553.691 319.753 561.082 308.12C579.038 279.857 559.58 251.769 572.794 235.078C583.794 221.182 593.472 231.621 594.515 226.344C595.275 222.498 586.868 215.654 576.065 218.615C562.254 222.399 558.422 233.912 556.681 238.366C553.232 247.185 547.659 240.555 544.974 240.705C544.033 240.758 542.407 243.052 542.633 243.764C543.005 244.942 546.053 248.14 546.386 248.489C563.615 266.558 555.317 299.661 539.469 311.537C511.471 332.517 495.205 313.619 477.672 305.319C455.844 294.984 446.318 306.108 445.845 300.484C445.233 293.201 465.232 288.112 465.314 288.025C465.838 287.467 465.821 284.658 465.382 284.238C464.99 283.866 458.383 282.156 449.322 286.298C429.782 295.229 427.421 312.414 419.205 323.422C401.088 347.692 377.007 331.857 357.036 351.698C350.612 358.083 341.298 375.428 347.899 375.439C349.784 375.445 349.953 375.433 350.9 373.782C370.496 339.696 417.36 351.541 415.954 381.922C415.01 402.253 396.797 404.274 384.268 409.731C362.807 419.077 357.324 444.612 362.733 448.475C366.599 451.236 370.172 444.618 370.513 443.984C372.02 441.192 372.009 441.242 373.584 438.481C387.984 413.276 411.832 417.66 418.706 429.513C426.514 442.978 419.859 450.247 419.605 455.251C418.923 468.578 438.097 457.807 434.324 432.725C431.399 413.281 415.751 415.206 423.105 403.978C432.315 389.91 430.205 374.264 443.729 368.051C452.421 364.056 459.49 366.941 463.384 367.51C472.749 368.88 476.928 356.44 472.69 344.903C468.873 334.506 454.847 329.922 454.393 333.742C453.959 337.385 455.024 337.157 457.96 339.335C458.498 339.732 459.144 339.983 459.656 340.414C460.386 341.031 465.942 345.728 464.643 351.279C463.226 357.336 456.478 353.273 446.499 354.341C432.879 355.798 429.004 367.581 423.947 359.311C418.661 350.676 415.762 350.642 415.266 348.137C414.396 343.705 419.118 342.736 424.533 337.49C440.979 321.565 440.875 314.279 460.581 315.696C462.953 315.865 477.787 316.93 486.068 331.049C502.173 358.497 484.09 379.843 474.471 384.466C460.696 391.085 453.895 387.171 453.365 393.257C452.875 398.923 464.125 403.792 477.379 398.715C481.952 396.962 487.747 393.877 493.946 387.185C500.722 379.871 504.038 370.818 531.053 369.021C537.161 368.615 537.784 366.916 540.491 369.793C542.472 371.9 540.055 374.957 536.879 382.043C517.393 425.526 479.018 446.32 474.268 448.875C473.671 449.196 468.171 452.155 465.83 449.768C464.708 448.624 465.308 438.763 464.257 432.409C463.28 426.504 456.047 412.182 451.097 417.541C448.293 420.576 453.647 440.589 448.961 455.071C446.028 464.14 445.062 466.003 444.597 466.899C438.009 479.586 429.72 492.141 407.38 506.536C383.963 521.626 363.694 518.933 361.936 518.91C360.231 518.885 350.455 518.75 341.802 512.022C316.013 491.966 318.639 449.157 325.787 432.84C340.078 400.225 363.697 410.765 378.258 392.727C385.527 383.722 384 373.698 381.769 373.162C376.99 372.021 377.616 374.236 375.063 378.44C366.912 391.865 349.598 392.406 334.395 400.115C328.069 403.321 325.66 405.248 323.37 398.545C318.146 383.26 320.144 342.364 325.905 331.525C330.661 322.576 333.837 333.275 356.34 332.457C358.713 332.373 370.918 331.931 384.285 322.517C406.197 307.086 417.103 269.37 452.162 267.57C496.214 265.31 509.073 293.505 511.197 297.393C514.567 303.564 518.309 299.366 518.312 299.36C519.932 296.263 518.76 296.094 517.661 288.763C516.292 279.632 526.043 281.553 531.126 272.109C531.506 271.399 536.299 262.495 530.889 262.042C525.181 261.56 523.921 280.232 499.589 264.135C493.912 260.379 487.539 259.427 495.501 250.51C510.828 233.345 516.923 233.706 533.805 224.183C553.105 213.296 563.674 173.647 538.694 154.733C537.947 154.17 526.285 145.34 527.038 153.756C527.24 156.007 528.06 155.514 529.697 157.224C531.095 158.686 535.555 164.206 537.029 167.561C541.39 177.519 540.725 183.399 540.565 184.799C537.967 207.742 521.512 214.169 508.259 221.041C493.892 228.493 486.778 240.82 479.869 246.171C469.019 254.575 446.09 252.707 437.992 255.184C408.059 264.338 397.634 287.633 387.066 300.033C380.044 308.269 364.593 320.015 350.494 318.392C323.637 315.296 314.258 282.829 325.691 255.302C334.313 234.54 349.477 230.421 356.239 226.899C362.364 223.709 359.228 219.125 356.478 218.057C348.316 214.885 335.846 221.889 333.749 221.948C331.673 222.007 326.398 222.157 321.896 198.876C319.349 185.701 321.355 172.703 321.831 170.452C328.915 137.076 348.26 132.371 356.16 128.161C362.818 124.617 360.626 116.361 347.741 119.59C337.159 122.242 330.168 129.119 325.714 122.388C322.73 117.877 321.071 101.91 320.885 100.096ZM414.229 212.972C414.474 220.356 416.027 231.719 405.481 247.362C405.171 247.819 401.922 252.64 404.655 254.229C408.848 256.666 419.239 243.638 419.724 242.888C426.145 232.934 426.08 226.966 429.402 226.445C433.473 225.808 443.709 234.568 457.602 229.55C458.298 229.299 467.746 225.887 462.823 221.943C458.893 218.787 446.315 225.538 431.684 207.728C423.102 197.278 425.776 183.559 404.531 164.527C394.546 155.579 387.852 157.044 392.103 144.94C392.729 143.159 395.208 138.301 395.369 128.313C395.856 98.1094 361.826 86.8449 367.323 100.254C368.357 102.781 381.16 110.715 382.036 125.484C382.169 127.682 381.853 142.192 370.324 147.997C363.742 151.31 345.101 154.801 350.79 162.002C353.314 165.198 363.136 162.622 373.178 164.899C376.801 165.722 385.916 165.679 398.713 178.854C411.434 191.953 413.976 211.712 414.229 212.972ZM394.54 218.624C393.261 211.185 393.709 211.047 390.39 204.22C385.741 194.649 375.359 187.777 369.929 185.904C368.633 185.456 351.596 179.573 352.889 187.667C353.309 190.288 362.68 191.519 370.541 198.546C385.237 211.684 384.575 232.942 373.671 244.314C363.505 254.913 349.967 254.82 346.093 269.46C341.537 286.675 354.687 300.076 368.16 295.615C371.344 294.562 371.073 291.953 371.034 291.555C370.608 287.436 357.025 290.704 357.141 277.668C357.262 264.121 376.224 262.56 384.361 252.225C393.512 240.606 395.298 234.035 394.54 218.624ZM496.825 412.608C500.612 408.503 500.556 408.466 500.888 408.114C514.381 393.801 518.413 394.77 517.74 389.786C517.373 387.075 511.682 390.087 511.22 390.332C507.96 392.06 503.593 393.888 497.47 399.202C483.357 411.45 480.574 425.216 483.549 425.788C486.203 426.298 489.009 422.486 489.336 422.041C492.917 417.175 492.94 417.237 496.825 412.608ZM359.124 467.66C356.611 467.333 341.582 468.33 341.213 446.804C341.199 445.888 341.351 444.961 341.219 444.054C341.16 443.654 340.714 443.381 340.658 442.981C340.596 442.538 341.114 442.045 340.886 441.662C340.59 441.169 337.308 440.715 336.64 441.211C334.719 442.634 329.571 460.452 340.055 471.401C354.532 486.523 378.554 469.189 372.352 464.943C370.079 463.388 369.932 464.442 367.348 465.428C363.353 466.958 363.348 466.778 359.124 467.66ZM340.492 83.3849C340.227 86.4617 339.142 95.6356 340.833 98.5714C344.326 104.632 345.814 98.3066 345.907 97.9093C346.403 95.8074 346.549 93.6379 346.902 91.5079C349.009 78.7473 361.251 59.5514 378.706 59.4923C382.65 59.4782 382.904 60.47 385.189 58.7315C391.534 53.8967 376.759 51.451 373.217 51.4003C368.895 51.3355 359.445 54.3221 354.084 58.709C341.788 68.776 340.678 82.4862 340.492 83.3849ZM367.684 504.651C372.341 504.811 385.913 507.482 400.801 491.268C412.885 478.104 409.338 463.495 408.746 461.067C405.025 445.731 400.316 449.602 399.57 450.442C396.141 454.296 406.876 468.654 388.035 486.954C373.026 501.532 354.14 494.046 353.39 494.02C348.885 493.863 348.113 496.339 351.491 499.365C355.106 502.6 366.34 504.431 367.684 504.651Z" fill="#383E42"/>
<path fill-rule="evenodd" clip-rule="evenodd" d="M300.33 100.096C300.02 90.023 300.53 48.518 261.724 33.6189C251.739 29.7842 237.085 31.5142 233.93 32.4242C203.314 41.2516 196.2 75.772 211.212 80.9619C220.529 84.1851 226.745 74.9493 231.053 75.293C234.637 75.5804 233.749 79.9419 233.659 80.3927C231.704 90.0202 217.467 98.0924 206.011 93.8577C185.71 86.3574 190.086 64.6822 190.517 60.5432C191.847 47.7234 203.078 34.8051 208.693 29.8096C220.867 18.9875 230.915 20.3286 231.163 15.6233C231.315 12.7523 226.314 9.90937 225.75 9.58817C206.788 -1.20015 192.765 0.304395 188.798 0.569243C169.016 1.90194 153.898 18.9142 149.68 27.0174C142.873 40.1048 153.805 34.405 154.371 34.0359C154.74 33.7964 155.039 33.4555 155.411 33.2216C170.065 24.0618 185.708 28.1416 186.409 32.4355C187.471 38.9412 178.286 37.0591 163.477 43.7085C158.766 45.8244 151.646 53.6121 149.576 57.9567C135.601 87.2562 157.205 101.696 169.642 113.73C188.925 132.387 186.184 143.15 186.958 144.81C188.314 147.715 191.506 145.599 191.833 145.382C193.16 144.503 193.997 139.972 194.087 139.476C197.341 121.844 183.451 110.74 180.912 108.134C168.529 95.4299 167.405 91.4515 166.901 80.4406C166.855 79.4376 166.176 64.6033 172.088 68.9986C175.102 71.2386 170.586 78.7276 177.692 91.6431C183.315 101.859 208.676 112.763 205.244 139.51C201.148 171.424 167.464 171.799 163.215 184.562C160.479 192.77 169.4 197.447 167.996 201.13C166.416 205.28 155.157 199.301 152.771 190.158C147.803 171.123 168.092 165.899 172.076 156.545C179.016 140.237 161.187 126.417 153.312 118.779C129.478 95.6525 134.786 89.7159 129.842 80.342C126.782 74.5435 113.615 77.6682 110.967 91.9925C110.155 96.3766 111.454 98.625 106.994 98.1939C104.146 97.9178 100.142 86.5434 104.971 77.9443C112.094 65.2626 121.626 64.0623 127.235 61.3716C138.92 55.7675 129.224 44.8468 135.812 27.0738C140.537 14.3244 141.106 14.5667 148.263 6.2832C150.353 3.86294 150.931 -0.791612 143.825 0.115633C126.229 2.35557 115.126 8.77953 112.874 10.0812C112.331 10.394 107.073 13.4369 110.863 17.6463C110.911 17.697 110.868 17.6604 115.878 20.8836C125.015 26.7582 125.928 36.9379 115.39 33.2132C105.101 29.5786 96.6595 23.5969 75.914 31.8354C60.0119 38.1523 48.5276 54.4376 45.1156 63.4903C33.1101 95.3369 52.906 106.41 40.1651 123.129C29.6473 136.929 27.2271 136.076 23.9954 154.223C23.908 154.722 22.3189 163.642 18.6815 157.621C17.4558 155.595 17.6728 152.302 18.0278 145.258C18.5068 135.743 24.6293 125.487 26.2663 123.267C31.3153 116.432 34.9049 116.029 29.3064 99.7153C26.2635 90.8429 17.1826 101.364 14.3172 105.869C4.4558 121.391 2.98499 126.685 0.415407 142.463C-1.34837 153.285 3.03014 170.948 3.74016 173.137C9.96408 192.252 14.4326 191.798 19.3013 189.282C23.8263 186.943 23.7192 186.867 28.3118 184.74C37.9534 180.269 33.1523 166.04 39.2974 150.746C47.5077 130.311 65.7399 121.593 67.946 120.188C73.5726 116.601 70.8199 112.191 69.645 108.94C60.364 83.2525 68.6673 56.486 87.4827 46.6782C97.6005 41.4066 95.6987 49.8958 94.7323 51.5891C93.1094 54.4404 69.0758 78.1359 84.6991 105.739C89.872 114.874 99.7306 114.426 112.979 119.447C126.193 124.453 136.902 138.769 134.459 156.359C132.811 168.229 131.515 169.531 131.036 171.01C121.721 199.811 136.029 204.395 136.406 209.957C136.471 210.912 136.094 219.221 124.46 209.565C114.001 200.882 113.959 186.825 113.953 184.664C113.9 166.305 126.198 158.142 118.256 142.514C110.203 126.671 70.0535 118.968 52.8722 156.145C50.8211 160.58 47.5555 165.502 49.4236 184.808C50.3139 193.987 48.7727 195.137 39.6637 196.624C14.6102 200.715 7.2649 228.386 6.77746 235.487C5.19965 258.585 7.72408 260.272 10.629 272.275C10.8205 273.067 13.2127 282.962 16.8952 280.294C19.107 278.693 18.0842 278.124 18.7858 271.774C19.3267 266.84 28.1061 248.991 33.7045 250.29C39.5453 251.648 30.6194 268.004 29.6812 283.314C28.6866 299.574 37.0518 319.407 46.3074 330.201C62.7646 349.396 86.8995 354.023 107.084 357.246C107.527 357.317 111.012 357.872 112.629 356.356C113.787 355.268 114.185 348.715 114.224 348.041C114.818 338.202 115.072 338.14 114.593 337.343C112.409 333.697 111.313 335.543 101.475 335.123C91.2442 334.686 81.7829 329.24 81.4392 329.02C73.0965 323.709 67.5234 319.753 60.133 308.12C42.1769 279.857 61.6348 251.769 48.4206 235.078C37.4209 221.182 27.7427 231.621 26.7002 226.344C25.9394 222.498 34.347 215.654 45.1494 218.615C58.9609 222.399 62.7928 233.912 64.534 238.366C67.9827 247.185 73.5557 240.555 76.2408 240.705C77.1819 240.758 78.8076 243.052 78.5822 243.764C78.2103 244.942 75.1617 248.14 74.8292 248.489C57.6 266.558 65.8977 299.661 81.7463 311.537C109.744 332.517 126.01 313.619 143.543 305.319C165.371 294.984 174.897 306.108 175.37 300.484C175.981 293.201 155.983 288.112 155.901 288.025C155.377 287.467 155.394 284.658 155.833 284.238C156.225 283.866 162.832 282.156 171.893 286.298C191.433 295.229 193.794 312.414 202.01 323.422C220.126 347.692 244.208 331.857 264.179 351.698C270.603 358.083 279.917 375.428 273.316 375.439C271.431 375.445 271.262 375.433 270.315 373.782C250.719 339.696 203.855 351.541 205.261 381.922C206.205 402.253 224.418 404.274 236.947 409.731C258.408 419.077 263.891 444.612 258.481 448.475C254.616 451.236 251.043 444.618 250.702 443.984C249.195 441.192 249.206 441.242 247.631 438.481C233.231 413.276 209.383 417.66 202.508 429.513C194.701 442.978 201.356 450.247 201.61 455.251C202.291 468.578 183.118 457.807 186.891 432.725C189.815 413.281 205.464 415.206 198.11 403.978C188.9 389.91 191.01 374.264 177.486 368.051C168.794 364.056 161.725 366.941 157.831 367.51C148.465 368.88 144.287 356.44 148.525 344.903C152.342 334.506 166.368 329.922 166.822 333.742C167.256 337.385 166.19 337.157 163.255 339.335C162.716 339.732 162.071 339.983 161.558 340.414C160.829 341.031 155.273 345.728 156.571 351.279C157.989 357.336 164.737 353.273 174.716 354.341C188.336 355.798 192.21 367.581 197.268 359.311C202.554 350.676 205.453 350.642 205.949 348.137C206.819 343.705 202.097 342.736 196.682 337.49C180.236 321.565 180.34 314.279 160.634 315.696C158.262 315.865 143.428 316.93 135.147 331.049C119.042 358.497 137.125 379.843 146.744 384.466C160.519 391.085 167.32 387.171 167.85 393.257C168.34 398.923 157.09 403.792 143.836 398.715C139.263 396.962 133.468 393.877 127.269 387.185C120.493 379.871 117.177 370.818 90.1622 369.021C84.0538 368.615 83.4312 366.916 80.7235 369.793C78.7428 371.9 81.1602 374.957 84.3356 382.043C103.822 425.526 142.196 446.32 146.947 448.875C147.544 449.196 153.044 452.155 155.385 449.768C156.507 448.624 155.906 438.763 156.957 432.409C157.935 426.504 165.168 412.182 170.118 417.541C172.922 420.576 167.568 440.589 172.254 455.071C175.187 464.14 176.153 466.003 176.618 466.899C183.206 479.586 191.495 492.141 213.835 506.536C237.251 521.626 257.521 518.933 259.279 518.91C260.983 518.885 270.76 518.75 279.413 512.022C305.202 491.966 302.576 449.157 295.428 432.84C281.137 400.225 257.518 410.765 242.957 392.727C235.688 383.722 237.215 373.698 239.446 373.162C244.225 372.021 243.599 374.236 246.152 378.44C254.303 391.865 271.617 392.406 286.82 400.115C293.146 403.321 295.555 405.248 297.845 398.545C303.069 383.26 301.071 342.364 295.309 331.525C290.553 322.576 287.378 333.275 264.874 332.457C262.502 332.373 250.297 331.931 236.93 322.517C215.018 307.086 204.112 269.37 169.053 267.57C125.001 265.31 112.142 293.505 110.017 297.393C106.648 303.564 102.906 299.366 102.903 299.36C101.283 296.263 102.455 296.094 103.554 288.763C104.923 279.632 95.1718 281.553 90.089 272.109C89.7086 271.399 84.916 262.495 90.3256 262.042C96.034 261.56 97.2934 280.232 121.626 264.135C127.303 260.379 133.676 259.427 125.714 250.51C110.386 233.345 104.292 233.706 87.4095 224.183C68.1094 213.296 57.5409 173.647 82.5211 154.733C83.2678 154.17 94.9295 145.34 94.1772 153.756C93.9744 156.007 93.1545 155.514 91.5175 157.224C90.12 158.686 85.6598 164.206 84.1862 167.561C79.8247 177.519 80.4897 183.399 80.6503 184.799C83.248 207.742 99.7024 214.169 112.956 221.041C127.323 228.493 134.437 240.82 141.345 246.171C152.196 254.575 175.125 252.707 183.222 255.184C213.156 264.338 223.581 287.633 234.149 300.033C241.171 308.269 256.622 320.015 270.721 318.392C297.578 315.296 306.957 282.829 295.524 255.302C286.902 234.54 271.738 230.421 264.976 226.899C258.851 223.709 261.987 219.125 264.736 218.057C272.899 214.885 285.369 221.889 287.465 221.948C289.542 222.007 294.816 222.157 299.319 198.876C301.866 185.701 299.86 172.703 299.384 170.452C292.3 137.076 272.955 132.371 265.055 128.161C258.397 124.617 260.589 116.361 273.474 119.59C284.056 122.242 291.046 129.119 295.501 122.388C298.485 117.877 300.144 101.91 300.33 100.096ZM206.985 212.972C206.74 220.356 205.188 231.719 215.734 247.362C216.044 247.819 219.292 252.64 216.559 254.229C212.367 256.666 201.976 243.638 201.491 242.888C195.07 232.934 195.135 226.966 191.813 226.445C187.742 225.808 177.506 234.568 163.612 229.55C162.916 229.299 153.469 225.887 158.392 221.943C162.322 218.787 174.899 225.538 189.531 207.728C198.113 197.278 195.439 183.559 216.683 164.527C226.669 155.579 233.363 157.044 229.112 144.94C228.486 143.159 226.007 138.301 225.846 128.313C225.359 98.1094 259.389 86.8449 253.892 100.254C252.858 102.781 240.055 110.715 239.179 125.484C239.046 127.682 239.362 142.192 250.891 147.997C257.473 151.31 276.114 154.801 270.425 162.002C267.9 165.198 258.079 162.622 248.037 164.899C244.414 165.722 235.299 165.679 222.502 178.854C209.78 191.953 207.239 211.712 206.985 212.972ZM226.674 218.624C227.954 211.185 227.506 211.047 230.825 204.22C235.474 194.649 245.856 187.777 251.286 185.904C252.582 185.456 269.619 179.573 268.326 187.667C267.906 190.288 258.535 191.519 250.674 198.546C235.978 211.684 236.64 232.942 247.544 244.314C257.709 254.913 271.248 254.82 275.122 269.46C279.678 286.675 266.528 300.076 253.055 295.615C249.871 294.562 250.142 291.953 250.181 291.555C250.607 287.436 264.19 290.704 264.074 277.668C263.953 264.121 244.991 262.56 236.854 252.225C227.703 240.606 225.916 234.035 226.674 218.624ZM124.39 412.608C120.603 408.503 120.659 408.466 120.327 408.114C106.834 393.801 102.802 394.77 103.475 389.786C103.841 387.075 109.533 390.087 109.995 390.332C113.255 392.06 117.622 393.888 123.744 399.202C137.857 411.45 140.641 425.216 137.666 425.788C135.012 426.298 132.205 422.486 131.879 422.041C128.297 417.175 128.275 417.237 124.39 412.608ZM262.091 467.66C264.604 467.333 279.633 468.33 280.002 446.804C280.016 445.888 279.864 444.961 279.996 444.054C280.055 443.654 280.5 443.381 280.557 442.981C280.619 442.538 280.1 442.045 280.329 441.662C280.624 441.169 283.907 440.715 284.575 441.211C286.496 442.634 291.644 460.452 281.16 471.401C266.683 486.523 242.661 469.189 248.862 464.943C251.136 463.388 251.283 464.442 253.866 465.428C257.862 466.958 257.867 466.778 262.091 467.66ZM280.723 83.3849C280.988 86.4617 282.073 95.6356 280.382 98.5714C276.888 104.632 275.401 98.3066 275.308 97.9093C274.812 95.8074 274.665 93.6379 274.313 91.5079C272.206 78.7473 259.963 59.5514 242.509 59.4923C238.564 59.4782 238.311 60.47 236.026 58.7315C229.681 53.8967 244.456 51.451 247.997 51.4003C252.32 51.3355 261.77 54.3221 267.131 58.709C279.427 68.776 280.537 82.4862 280.723 83.3849ZM253.531 504.651C248.874 504.811 235.302 507.482 220.414 491.268C208.329 478.104 211.877 463.495 212.468 461.067C216.19 445.731 220.898 449.602 221.645 450.442C225.074 454.296 214.339 468.654 233.18 486.954C248.189 501.532 267.075 494.046 267.824 494.02C272.33 493.863 273.102 496.339 269.723 499.365C266.109 502.6 254.875 504.431 253.531 504.651Z" fill="#C90000"/>
</svg>
